<svg xmlns="http://www.w3.org/2000/svg" width="1600" height="660" viewBox="0 0 1600 660">
<defs>
  <linearGradient id="bg" x1="0" y1="0" x2="1" y2="1"><stop offset="0" stop-color="#08051f"/><stop offset=".24" stop-color="#160532"/><stop offset=".50" stop-color="#3d0866"/><stop offset=".72" stop-color="#5a075d"/><stop offset="1" stop-color="#0a0628"/></linearGradient>
  <radialGradient id="center" cx="50%" cy="48%" r="45%"><stop offset="0" stop-color="#ff2ed2" stop-opacity=".62"/><stop offset=".28" stop-color="#bb25e6" stop-opacity=".38"/><stop offset=".62" stop-color="#5a16a8" stop-opacity=".14"/><stop offset="1" stop-color="#12042e" stop-opacity="0"/></radialGradient>
  <radialGradient id="vignette" cx="50%" cy="50%" r="72%"><stop offset=".44" stop-color="#000" stop-opacity="0"/><stop offset=".82" stop-color="#02000e" stop-opacity=".18"/><stop offset="1" stop-color="#010009" stop-opacity=".64"/></radialGradient>
  <filter id="pinkGlow" x="-80%" y="-80%" width="260%" height="260%"><feGaussianBlur stdDeviation="10" result="b"/><feMerge><feMergeNode in="b"/><feMergeNode in="SourceGraphic"/></feMerge></filter>
  <filter id="cyanGlow" x="-80%" y="-80%" width="260%" height="260%"><feGaussianBlur stdDeviation="8" result="b"/><feMerge><feMergeNode in="b"/><feMergeNode in="SourceGraphic"/></feMerge></filter>
  <filter id="logoGlow" x="-40%" y="-90%" width="180%" height="280%"><feGaussianBlur in="SourceGraphic" stdDeviation="8" result="b"/><feFlood flood-color="#ff22cd" flood-opacity=".8" result="c"/><feComposite in="c" in2="b" operator="in" result="g"/><feMerge><feMergeNode in="g"/><feMergeNode in="SourceGraphic"/></feMerge></filter>
  <pattern id="pixels" width="18" height="18" patternUnits="userSpaceOnUse"><circle cx="3" cy="3" r="1.2" fill="#d15cff" opacity=".22"/></pattern>
</defs>
<rect width="1600" height="660" fill="url(#bg)"/><rect width="1600" height="660" fill="url(#center)"/><rect width="1600" height="660" fill="url(#pixels)" opacity=".32"/>
<g fill="none" stroke-linecap="round" stroke-linejoin="round">
  <polyline points="52,50 238,330 52,610" stroke="#ff28d4" stroke-width="24" filter="url(#pinkGlow)"/><polyline points="150,50 350,330 150,610" stroke="#25dcff" stroke-width="21" filter="url(#cyanGlow)"/><polyline points="275,88 438,330 275,572" stroke="#a744ff" stroke-width="15" filter="url(#pinkGlow)"/>
  <polyline points="1548,50 1362,330 1548,610" stroke="#ff28d4" stroke-width="24" filter="url(#pinkGlow)"/><polyline points="1450,50 1250,330 1450,610" stroke="#25dcff" stroke-width="21" filter="url(#cyanGlow)"/><polyline points="1325,88 1162,330 1325,572" stroke="#a744ff" stroke-width="15" filter="url(#pinkGlow)"/>
</g>
<g transform="translate(800 124)" fill="#ffd84f" filter="url(#pinkGlow)"><path d="M-57 34 L-72 -17 L-33 6 L-8 -41 L17 7 L55 -20 L46 34 Z"/><rect x="-49" y="39" width="93" height="14" rx="4"/></g>
<text x="800" y="350" text-anchor="middle" dominant-baseline="middle" font-family="Arial Black,Arial,Helvetica,sans-serif" font-size="166" font-weight="900" font-style="italic" fill="#fff9ff" stroke="#ff36d8" stroke-width="9" paint-order="stroke fill" filter="url(#logoGlow)">AUDITION</text>
<text x="800" y="454" text-anchor="middle" font-family="Arial,Helvetica,sans-serif" font-size="38" font-weight="700" letter-spacing="15" fill="#fffaff">DANCE TOGETHER</text>
<rect x="140" y="574" width="1320" height="5" rx="2.5" fill="#ff3ad8" opacity=".78" filter="url(#pinkGlow)"/><rect width="1600" height="660" fill="url(#vignette)"/>
</svg>